<?xml version="1.0" standalone="no"?><svg xmlns="http://www.w3.org/2000/svg" viewBox="0 0 1440 320"><path fill="#000000" fill-opacity="1" d="M0,160L20,138.7C40,117,80,75,120,74.7C160,75,200,117,240,117.3C280,117,320,75,360,53.3C400,32,440,32,480,37.3C520,43,560,53,600,80C640,107,680,149,720,154.7C760,160,800,128,840,117.3C880,107,920,117,960,117.3C1000,117,1040,107,1080,101.3C1120,96,1160,96,1200,106.7C1240,117,1280,139,1320,122.7C1360,107,1400,53,1420,26.7L1440,0L1440,0L1420,0C1400,0,1360,0,1320,0C1280,0,1240,0,1200,0C1160,0,1120,0,1080,0C1040,0,1000,0,960,0C920,0,880,0,840,0C800,0,760,0,720,0C680,0,640,0,600,0C560,0,520,0,480,0C440,0,400,0,360,0C320,0,280,0,240,0C200,0,160,0,120,0C80,0,40,0,20,0L0,0Z"></path></svg>